<mxfile host="app.diagrams.net" agent="Mozilla/5.0 (Windows NT 10.0; Win64; x64) AppleWebKit/537.36 (KHTML, like Gecko) Chrome/127.0.0.0 Safari/537.36" version="24.7.7">
  <diagram name="Page-1" id="5HzIveNtNE6-Vjow3OQW">
    <mxGraphModel dx="1545" dy="1958" grid="1" gridSize="10" guides="1" tooltips="1" connect="1" arrows="1" fold="1" page="1" pageScale="1" pageWidth="1169" pageHeight="827" math="0" shadow="0">
      <root>
        <mxCell id="0" />
        <mxCell id="1" parent="0" />
        <mxCell id="IqZ9WiE2xhwn1gOewDwU-17" style="edgeStyle=orthogonalEdgeStyle;rounded=0;sketch=1;hachureGap=4;jiggle=2;curveFitting=1;orthogonalLoop=1;jettySize=auto;html=1;exitX=0.25;exitY=0;exitDx=0;exitDy=0;fontFamily=Architects Daughter;fontSource=https%3A%2F%2Ffonts.googleapis.com%2Fcss%3Ffamily%3DArchitects%2BDaughter;fillColor=#d5e8d4;strokeColor=#82b366;fontStyle=1" edge="1" parent="1">
          <mxGeometry relative="1" as="geometry">
            <mxPoint x="540" y="680" as="targetPoint" />
            <mxPoint x="550" y="770" as="sourcePoint" />
          </mxGeometry>
        </mxCell>
        <mxCell id="IqZ9WiE2xhwn1gOewDwU-54" value="&lt;u&gt;&lt;b&gt;&lt;font style=&quot;font-size: 16px;&quot;&gt;1. Sent Events&lt;/font&gt;&lt;/b&gt;&lt;/u&gt;" style="edgeLabel;html=1;align=center;verticalAlign=middle;resizable=0;points=[];sketch=1;hachureGap=4;jiggle=2;curveFitting=1;fontFamily=Architects Daughter;fontSource=https%3A%2F%2Ffonts.googleapis.com%2Fcss%3Ffamily%3DArchitects%2BDaughter;fontColor=#7F00FF;" vertex="1" connectable="0" parent="IqZ9WiE2xhwn1gOewDwU-17">
          <mxGeometry x="-0.1156" relative="1" as="geometry">
            <mxPoint x="-15" y="4" as="offset" />
          </mxGeometry>
        </mxCell>
        <mxCell id="IqZ9WiE2xhwn1gOewDwU-1" value="&lt;i&gt;&lt;font style=&quot;font-size: 13px;&quot;&gt;&lt;b&gt;windows 10 Client Wazuh&lt;/b&gt;&lt;/font&gt;&lt;/i&gt;" style="image;html=1;image=img/lib/clip_art/computers/Laptop_128x128.png;sketch=1;hachureGap=4;jiggle=2;curveFitting=1;fontFamily=Architects Daughter;fontSource=https%3A%2F%2Ffonts.googleapis.com%2Fcss%3Ffamily%3DArchitects%2BDaughter;" vertex="1" parent="1">
          <mxGeometry x="530" y="760" width="80" height="80" as="geometry" />
        </mxCell>
        <mxCell id="IqZ9WiE2xhwn1gOewDwU-41" style="edgeStyle=orthogonalEdgeStyle;rounded=0;sketch=1;hachureGap=4;jiggle=2;curveFitting=1;orthogonalLoop=1;jettySize=auto;html=1;exitX=0.5;exitY=0;exitDx=0;exitDy=0;fontFamily=Architects Daughter;fontSource=https%3A%2F%2Ffonts.googleapis.com%2Fcss%3Ffamily%3DArchitects%2BDaughter;" edge="1" parent="1" source="IqZ9WiE2xhwn1gOewDwU-2" target="IqZ9WiE2xhwn1gOewDwU-7">
          <mxGeometry relative="1" as="geometry" />
        </mxCell>
        <mxCell id="IqZ9WiE2xhwn1gOewDwU-2" value="&lt;b&gt;&lt;font style=&quot;font-size: 13px;&quot;&gt;Router&lt;/font&gt;&lt;/b&gt;" style="image;html=1;image=img/lib/clip_art/networking/Router_Icon_128x128.png;sketch=1;hachureGap=4;jiggle=2;curveFitting=1;fontFamily=Architects Daughter;fontSource=https%3A%2F%2Ffonts.googleapis.com%2Fcss%3Ffamily%3DArchitects%2BDaughter;" vertex="1" parent="1">
          <mxGeometry x="505" y="580" width="80" height="80" as="geometry" />
        </mxCell>
        <mxCell id="IqZ9WiE2xhwn1gOewDwU-6" value="&lt;b&gt;&lt;font style=&quot;font-size: 13px;&quot;&gt;Wazuh Manager&lt;/font&gt;&lt;/b&gt;" style="image;aspect=fixed;perimeter=ellipsePerimeter;html=1;align=center;shadow=0;dashed=0;spacingTop=3;image=img/lib/active_directory/internet_cloud.svg;sketch=1;hachureGap=4;jiggle=2;curveFitting=1;fontFamily=Architects Daughter;fontSource=https%3A%2F%2Ffonts.googleapis.com%2Fcss%3Ffamily%3DArchitects%2BDaughter;" vertex="1" parent="1">
          <mxGeometry x="150" y="438.75" width="50.79" height="32" as="geometry" />
        </mxCell>
        <mxCell id="IqZ9WiE2xhwn1gOewDwU-45" style="edgeStyle=orthogonalEdgeStyle;rounded=0;sketch=1;hachureGap=4;jiggle=2;curveFitting=1;orthogonalLoop=1;jettySize=auto;html=1;fontFamily=Architects Daughter;fontSource=https%3A%2F%2Ffonts.googleapis.com%2Fcss%3Ffamily%3DArchitects%2BDaughter;fillColor=#d80073;strokeColor=#A50040;" edge="1" parent="1" source="IqZ9WiE2xhwn1gOewDwU-7" target="IqZ9WiE2xhwn1gOewDwU-15">
          <mxGeometry relative="1" as="geometry">
            <mxPoint x="570" y="310" as="targetPoint" />
          </mxGeometry>
        </mxCell>
        <mxCell id="IqZ9WiE2xhwn1gOewDwU-99" value="&lt;font size=&quot;1&quot; color=&quot;#9933ff&quot;&gt;&lt;b style=&quot;font-size: 12px;&quot;&gt;4.Enrich IOCS&lt;/b&gt;&lt;/font&gt;" style="edgeLabel;html=1;align=center;verticalAlign=middle;resizable=0;points=[];sketch=1;hachureGap=4;jiggle=2;curveFitting=1;fontFamily=Architects Daughter;fontSource=https%3A%2F%2Ffonts.googleapis.com%2Fcss%3Ffamily%3DArchitects%2BDaughter;" vertex="1" connectable="0" parent="IqZ9WiE2xhwn1gOewDwU-45">
          <mxGeometry x="-0.0948" y="-8" relative="1" as="geometry">
            <mxPoint x="2" as="offset" />
          </mxGeometry>
        </mxCell>
        <mxCell id="IqZ9WiE2xhwn1gOewDwU-7" value="&lt;i&gt;&lt;font size=&quot;1&quot; style=&quot;&quot;&gt;&lt;b style=&quot;font-size: 15px;&quot;&gt;internet&lt;/b&gt;&lt;/font&gt;&lt;/i&gt;" style="image;aspect=fixed;perimeter=ellipsePerimeter;html=1;align=center;shadow=0;dashed=0;spacingTop=3;image=img/lib/active_directory/internet_globe.svg;sketch=1;hachureGap=4;jiggle=2;curveFitting=1;fontFamily=Architects Daughter;fontSource=https%3A%2F%2Ffonts.googleapis.com%2Fcss%3Ffamily%3DArchitects%2BDaughter;" vertex="1" parent="1">
          <mxGeometry x="535" y="438.75" width="50" height="50" as="geometry" />
        </mxCell>
        <mxCell id="IqZ9WiE2xhwn1gOewDwU-8" value="&lt;b&gt;&lt;font style=&quot;font-size: 13px;&quot;&gt;TheHive&lt;/font&gt;&lt;/b&gt;" style="image;aspect=fixed;perimeter=ellipsePerimeter;html=1;align=center;shadow=0;dashed=0;spacingTop=3;image=img/lib/active_directory/internet_cloud.svg;sketch=1;hachureGap=4;jiggle=2;curveFitting=1;fontFamily=Architects Daughter;fontSource=https%3A%2F%2Ffonts.googleapis.com%2Fcss%3Ffamily%3DArchitects%2BDaughter;" vertex="1" parent="1">
          <mxGeometry x="1070" y="457.1" width="50" height="31.5" as="geometry" />
        </mxCell>
        <mxCell id="IqZ9WiE2xhwn1gOewDwU-10" value="&lt;b&gt;&lt;font style=&quot;font-size: 13px;&quot;&gt;SOC analys&lt;/font&gt;&lt;/b&gt;t" style="image;points=[];aspect=fixed;html=1;align=center;shadow=0;dashed=0;image=img/lib/allied_telesis/computer_and_terminals/Personal_Computer_Wireless.svg;sketch=1;hachureGap=4;jiggle=2;curveFitting=1;fontFamily=Architects Daughter;fontSource=https%3A%2F%2Ffonts.googleapis.com%2Fcss%3Ffamily%3DArchitects%2BDaughter;" vertex="1" parent="1">
          <mxGeometry x="1080" y="610" width="63" height="64.2" as="geometry" />
        </mxCell>
        <mxCell id="IqZ9WiE2xhwn1gOewDwU-15" value="&lt;b&gt;&lt;i&gt;&lt;font style=&quot;font-size: 14px;&quot;&gt;shuffle&lt;/font&gt;&lt;/i&gt;&lt;/b&gt;" style="image;aspect=fixed;perimeter=ellipsePerimeter;html=1;align=center;shadow=0;dashed=0;spacingTop=3;image=img/lib/active_directory/internet_cloud.svg;sketch=1;hachureGap=4;jiggle=2;curveFitting=1;fontFamily=Architects Daughter;fontSource=https%3A%2F%2Ffonts.googleapis.com%2Fcss%3Ffamily%3DArchitects%2BDaughter;" vertex="1" parent="1">
          <mxGeometry x="535" y="220" width="50" height="31.5" as="geometry" />
        </mxCell>
        <mxCell id="IqZ9WiE2xhwn1gOewDwU-16" value="" style="shape=link;html=1;rounded=0;sketch=1;hachureGap=4;jiggle=2;curveFitting=1;fontFamily=Architects Daughter;fontSource=https%3A%2F%2Ffonts.googleapis.com%2Fcss%3Ffamily%3DArchitects%2BDaughter;" edge="1" parent="1">
          <mxGeometry width="100" relative="1" as="geometry">
            <mxPoint x="2370" y="370" as="sourcePoint" />
            <mxPoint x="2470" y="370" as="targetPoint" />
          </mxGeometry>
        </mxCell>
        <mxCell id="IqZ9WiE2xhwn1gOewDwU-35" value="" style="shape=link;html=1;rounded=0;sketch=1;hachureGap=4;jiggle=2;curveFitting=1;fontFamily=Architects Daughter;fontSource=https%3A%2F%2Ffonts.googleapis.com%2Fcss%3Ffamily%3DArchitects%2BDaughter;" edge="1" parent="1" source="IqZ9WiE2xhwn1gOewDwU-49">
          <mxGeometry width="100" relative="1" as="geometry">
            <mxPoint x="220" y="457.1" as="sourcePoint" />
            <mxPoint x="530" y="240" as="targetPoint" />
            <Array as="points" />
          </mxGeometry>
        </mxCell>
        <mxCell id="IqZ9WiE2xhwn1gOewDwU-43" style="edgeStyle=orthogonalEdgeStyle;rounded=0;sketch=1;hachureGap=4;jiggle=2;curveFitting=1;orthogonalLoop=1;jettySize=auto;html=1;exitX=0.5;exitY=1;exitDx=0;exitDy=0;fontFamily=Architects Daughter;fontSource=https%3A%2F%2Ffonts.googleapis.com%2Fcss%3Ffamily%3DArchitects%2BDaughter;" edge="1" parent="1" source="IqZ9WiE2xhwn1gOewDwU-15" target="IqZ9WiE2xhwn1gOewDwU-15">
          <mxGeometry relative="1" as="geometry" />
        </mxCell>
        <mxCell id="IqZ9WiE2xhwn1gOewDwU-46" value="" style="shape=link;html=1;rounded=0;sketch=1;hachureGap=4;jiggle=2;curveFitting=1;fontFamily=Architects Daughter;fontSource=https%3A%2F%2Ffonts.googleapis.com%2Fcss%3Ffamily%3DArchitects%2BDaughter;width=2202;" edge="1" parent="1">
          <mxGeometry width="100" relative="1" as="geometry">
            <mxPoint x="720" y="310" as="sourcePoint" />
            <mxPoint x="820" y="310" as="targetPoint" />
          </mxGeometry>
        </mxCell>
        <mxCell id="IqZ9WiE2xhwn1gOewDwU-50" value="" style="shape=link;html=1;rounded=0;sketch=1;hachureGap=4;jiggle=2;curveFitting=1;fontFamily=Architects Daughter;fontSource=https%3A%2F%2Ffonts.googleapis.com%2Fcss%3Ffamily%3DArchitects%2BDaughter;" edge="1" parent="1" target="IqZ9WiE2xhwn1gOewDwU-49">
          <mxGeometry width="100" relative="1" as="geometry">
            <mxPoint x="220" y="457.1" as="sourcePoint" />
            <mxPoint x="530" y="240" as="targetPoint" />
            <Array as="points" />
          </mxGeometry>
        </mxCell>
        <mxCell id="IqZ9WiE2xhwn1gOewDwU-49" value="&lt;u&gt;&lt;i&gt;&lt;font color=&quot;#b266ff&quot; size=&quot;1&quot; style=&quot;&quot;&gt;&lt;b style=&quot;font-size: 15px;&quot;&gt;3.Sent alerts&lt;/b&gt;&lt;/font&gt;&lt;/i&gt;&lt;/u&gt;" style="text;html=1;align=center;verticalAlign=middle;resizable=0;points=[];autosize=1;strokeColor=none;fillColor=none;fontFamily=Architects Daughter;fontSource=https%3A%2F%2Ffonts.googleapis.com%2Fcss%3Ffamily%3DArchitects%2BDaughter;" vertex="1" parent="1">
          <mxGeometry x="320" y="340" width="110" height="30" as="geometry" />
        </mxCell>
        <mxCell id="IqZ9WiE2xhwn1gOewDwU-55" style="edgeStyle=orthogonalEdgeStyle;rounded=0;sketch=1;hachureGap=4;jiggle=2;curveFitting=1;orthogonalLoop=1;jettySize=auto;html=1;exitX=0.25;exitY=1;exitDx=0;exitDy=0;entryX=0;entryY=0.5;entryDx=0;entryDy=0;fontFamily=Architects Daughter;fontSource=https%3A%2F%2Ffonts.googleapis.com%2Fcss%3Ffamily%3DArchitects%2BDaughter;" edge="1" parent="1" source="IqZ9WiE2xhwn1gOewDwU-15" target="IqZ9WiE2xhwn1gOewDwU-15">
          <mxGeometry relative="1" as="geometry" />
        </mxCell>
        <mxCell id="IqZ9WiE2xhwn1gOewDwU-57" value="Windows 10&amp;nbsp;&lt;div&gt;&lt;br&gt;&lt;/div&gt;" style="text;html=1;align=center;verticalAlign=middle;resizable=0;points=[];autosize=1;strokeColor=#001DBC;fillColor=#0050ef;fontFamily=Architects Daughter;fontSource=https%3A%2F%2Ffonts.googleapis.com%2Fcss%3Ffamily%3DArchitects%2BDaughter;fontColor=#ffffff;" vertex="1" parent="1">
          <mxGeometry x="80" y="1025" width="90" height="40" as="geometry" />
        </mxCell>
        <mxCell id="IqZ9WiE2xhwn1gOewDwU-97" value="" style="edgeStyle=orthogonalEdgeStyle;rounded=0;sketch=1;hachureGap=4;jiggle=2;curveFitting=1;orthogonalLoop=1;jettySize=auto;html=1;fontFamily=Architects Daughter;fontSource=https%3A%2F%2Ffonts.googleapis.com%2Fcss%3Ffamily%3DArchitects%2BDaughter;" edge="1" parent="1" source="IqZ9WiE2xhwn1gOewDwU-69" target="IqZ9WiE2xhwn1gOewDwU-86">
          <mxGeometry relative="1" as="geometry" />
        </mxCell>
        <mxCell id="IqZ9WiE2xhwn1gOewDwU-98" value="&lt;font style=&quot;font-size: 12px;&quot;&gt;Enrich IOCS&lt;/font&gt;" style="edgeLabel;html=1;align=center;verticalAlign=middle;resizable=0;points=[];sketch=1;hachureGap=4;jiggle=2;curveFitting=1;fontFamily=Architects Daughter;fontSource=https%3A%2F%2Ffonts.googleapis.com%2Fcss%3Ffamily%3DArchitects%2BDaughter;" vertex="1" connectable="0" parent="IqZ9WiE2xhwn1gOewDwU-97">
          <mxGeometry x="0.4154" y="2" relative="1" as="geometry">
            <mxPoint as="offset" />
          </mxGeometry>
        </mxCell>
        <mxCell id="IqZ9WiE2xhwn1gOewDwU-69" value="&lt;i&gt;&lt;font color=&quot;#ff66ff&quot; style=&quot;font-size: 15px;&quot;&gt;SHUFFLE&lt;/font&gt;&lt;/i&gt;" style="rounded=1;whiteSpace=wrap;html=1;sketch=1;hachureGap=4;jiggle=2;curveFitting=1;fontFamily=Architects Daughter;fontSource=https%3A%2F%2Ffonts.googleapis.com%2Fcss%3Ffamily%3DArchitects%2BDaughter;" vertex="1" parent="1">
          <mxGeometry x="850" y="1030" width="120" height="40" as="geometry" />
        </mxCell>
        <mxCell id="IqZ9WiE2xhwn1gOewDwU-59" value="&lt;div&gt;&lt;font color=&quot;#9933ff&quot; style=&quot;font-size: 14px;&quot;&gt;Trigger alaerts and Perform response action&lt;/font&gt;&lt;/div&gt;" style="text;html=1;align=left;verticalAlign=middle;resizable=0;points=[];autosize=1;strokeColor=none;fillColor=none;fontFamily=Architects Daughter;fontSource=https%3A%2F%2Ffonts.googleapis.com%2Fcss%3Ffamily%3DArchitects%2BDaughter;" vertex="1" parent="1">
          <mxGeometry x="300" y="1090" width="320" height="30" as="geometry" />
        </mxCell>
        <mxCell id="IqZ9WiE2xhwn1gOewDwU-71" value="&lt;u&gt;&lt;i&gt;&lt;font color=&quot;#9999ff&quot;&gt;WAZUH MANAGER&lt;/font&gt;&lt;/i&gt;&lt;/u&gt;" style="rounded=1;whiteSpace=wrap;html=1;sketch=1;hachureGap=4;jiggle=2;curveFitting=1;fontFamily=Architects Daughter;fontSource=https%3A%2F%2Ffonts.googleapis.com%2Fcss%3Ffamily%3DArchitects%2BDaughter;" vertex="1" parent="1">
          <mxGeometry x="370" y="1015" width="120" height="60" as="geometry" />
        </mxCell>
        <mxCell id="IqZ9WiE2xhwn1gOewDwU-72" value="&lt;b&gt;&lt;font color=&quot;#007fff&quot; style=&quot;font-size: 13px;&quot;&gt;Sends Events&lt;/font&gt;&lt;/b&gt;" style="text;html=1;align=center;verticalAlign=middle;resizable=0;points=[];autosize=1;strokeColor=none;fillColor=none;fontFamily=Architects Daughter;fontSource=https%3A%2F%2Ffonts.googleapis.com%2Fcss%3Ffamily%3DArchitects%2BDaughter;" vertex="1" parent="1">
          <mxGeometry x="80" y="1090" width="100" height="30" as="geometry" />
        </mxCell>
        <mxCell id="IqZ9WiE2xhwn1gOewDwU-76" value="EMAIL" style="whiteSpace=wrap;html=1;sketch=1;hachureGap=4;jiggle=2;curveFitting=1;fontFamily=Architects Daughter;fontSource=https%3A%2F%2Ffonts.googleapis.com%2Fcss%3Ffamily%3DArchitects%2BDaughter;strokeColor=#43d51a;" vertex="1" parent="1">
          <mxGeometry x="1280" y="1030" width="120" height="30" as="geometry" />
        </mxCell>
        <mxCell id="IqZ9WiE2xhwn1gOewDwU-77" value="&lt;b&gt;&lt;i&gt;&lt;font color=&quot;#3333ff&quot; style=&quot;font-size: 13px;&quot;&gt;Sends email &amp;amp; responsive action&lt;/font&gt;&lt;/i&gt;&lt;/b&gt;" style="text;html=1;align=center;verticalAlign=middle;resizable=0;points=[];autosize=1;strokeColor=none;fillColor=none;fontFamily=Architects Daughter;fontSource=https%3A%2F%2Ffonts.googleapis.com%2Fcss%3Ffamily%3DArchitects%2BDaughter;" vertex="1" parent="1">
          <mxGeometry x="1230" y="1120" width="220" height="30" as="geometry" />
        </mxCell>
        <mxCell id="IqZ9WiE2xhwn1gOewDwU-79" value="" style="shape=flexArrow;endArrow=classic;html=1;rounded=0;sketch=1;hachureGap=4;jiggle=2;curveFitting=1;fontFamily=Architects Daughter;fontSource=https%3A%2F%2Ffonts.googleapis.com%2Fcss%3Ffamily%3DArchitects%2BDaughter;" edge="1" parent="1">
          <mxGeometry width="50" height="50" relative="1" as="geometry">
            <mxPoint x="1030" y="1050" as="sourcePoint" />
            <mxPoint x="1270" y="1040" as="targetPoint" />
          </mxGeometry>
        </mxCell>
        <mxCell id="IqZ9WiE2xhwn1gOewDwU-80" value="" style="shape=flexArrow;endArrow=classic;html=1;rounded=0;sketch=1;hachureGap=4;jiggle=2;curveFitting=1;fontFamily=Architects Daughter;fontSource=https%3A%2F%2Ffonts.googleapis.com%2Fcss%3Ffamily%3DArchitects%2BDaughter;" edge="1" parent="1">
          <mxGeometry width="50" height="50" relative="1" as="geometry">
            <mxPoint x="170" y="1044.5" as="sourcePoint" />
            <mxPoint x="360" y="1044.5" as="targetPoint" />
          </mxGeometry>
        </mxCell>
        <mxCell id="IqZ9WiE2xhwn1gOewDwU-83" value="&lt;b&gt;&lt;font color=&quot;#00ffff&quot;&gt;TheHive&lt;/font&gt;&lt;/b&gt;" style="whiteSpace=wrap;html=1;sketch=1;hachureGap=4;jiggle=2;curveFitting=1;fontFamily=Architects Daughter;fontSource=https%3A%2F%2Ffonts.googleapis.com%2Fcss%3Ffamily%3DArchitects%2BDaughter;" vertex="1" parent="1">
          <mxGeometry x="870" y="1226" width="120" height="30" as="geometry" />
        </mxCell>
        <mxCell id="IqZ9WiE2xhwn1gOewDwU-84" value="&lt;b&gt;&lt;font color=&quot;#b266ff&quot;&gt;Creates alerts in case Management&lt;/font&gt;&lt;/b&gt;" style="text;html=1;align=center;verticalAlign=middle;resizable=0;points=[];autosize=1;strokeColor=none;fillColor=none;fontFamily=Architects Daughter;fontSource=https%3A%2F%2Ffonts.googleapis.com%2Fcss%3Ffamily%3DArchitects%2BDaughter;" vertex="1" parent="1">
          <mxGeometry x="820" y="1260" width="220" height="30" as="geometry" />
        </mxCell>
        <mxCell id="IqZ9WiE2xhwn1gOewDwU-86" value="&lt;font color=&quot;#cc6600&quot;&gt;OSINT&lt;/font&gt;" style="whiteSpace=wrap;html=1;sketch=1;hachureGap=4;jiggle=2;curveFitting=1;fontFamily=Architects Daughter;fontSource=https%3A%2F%2Ffonts.googleapis.com%2Fcss%3Ffamily%3DArchitects%2BDaughter;" vertex="1" parent="1">
          <mxGeometry x="880" y="940" width="70" height="30" as="geometry" />
        </mxCell>
        <mxCell id="IqZ9WiE2xhwn1gOewDwU-87" style="edgeStyle=orthogonalEdgeStyle;rounded=0;sketch=1;hachureGap=4;jiggle=2;curveFitting=1;orthogonalLoop=1;jettySize=auto;html=1;exitX=0.5;exitY=1;exitDx=0;exitDy=0;fontFamily=Architects Daughter;fontSource=https%3A%2F%2Ffonts.googleapis.com%2Fcss%3Ffamily%3DArchitects%2BDaughter;" edge="1" parent="1" source="IqZ9WiE2xhwn1gOewDwU-86" target="IqZ9WiE2xhwn1gOewDwU-86">
          <mxGeometry relative="1" as="geometry" />
        </mxCell>
        <mxCell id="IqZ9WiE2xhwn1gOewDwU-66" value="&lt;b&gt;&lt;i&gt;&lt;font color=&quot;#6600cc&quot; style=&quot;font-size: 14px;&quot;&gt;Receive Wazuh Alerts and Sends responsive action&lt;/font&gt;&lt;/i&gt;&lt;/b&gt;" style="text;html=1;align=center;verticalAlign=middle;resizable=0;points=[];autosize=1;strokeColor=none;fillColor=none;fontFamily=Architects Daughter;fontSource=https%3A%2F%2Ffonts.googleapis.com%2Fcss%3Ffamily%3DArchitects%2BDaughter;" vertex="1" parent="1">
          <mxGeometry x="670" y="1110" width="360" height="30" as="geometry" />
        </mxCell>
        <mxCell id="IqZ9WiE2xhwn1gOewDwU-89" value="" style="shape=flexArrow;endArrow=classic;html=1;rounded=0;sketch=1;hachureGap=4;jiggle=2;curveFitting=1;fontFamily=Architects Daughter;fontSource=https%3A%2F%2Ffonts.googleapis.com%2Fcss%3Ffamily%3DArchitects%2BDaughter;" edge="1" parent="1">
          <mxGeometry width="50" height="50" relative="1" as="geometry">
            <mxPoint x="920" y="1140" as="sourcePoint" />
            <mxPoint x="920" y="1210.7106781186549" as="targetPoint" />
            <Array as="points">
              <mxPoint x="920" y="1150" />
            </Array>
          </mxGeometry>
        </mxCell>
        <mxCell id="IqZ9WiE2xhwn1gOewDwU-94" value="" style="shape=flexArrow;endArrow=classic;html=1;rounded=0;sketch=1;hachureGap=4;jiggle=2;curveFitting=1;fontFamily=Architects Daughter;fontSource=https%3A%2F%2Ffonts.googleapis.com%2Fcss%3Ffamily%3DArchitects%2BDaughter;width=8;endSize=2.24;entryX=0;entryY=0.5;entryDx=0;entryDy=0;" edge="1" parent="1" target="IqZ9WiE2xhwn1gOewDwU-69">
          <mxGeometry width="50" height="50" relative="1" as="geometry">
            <mxPoint x="510" y="1050" as="sourcePoint" />
            <mxPoint x="560.7106781186548" y="1045" as="targetPoint" />
          </mxGeometry>
        </mxCell>
        <mxCell id="IqZ9WiE2xhwn1gOewDwU-103" value="" style="shape=link;html=1;rounded=0;sketch=1;hachureGap=4;jiggle=2;curveFitting=1;fontFamily=Architects Daughter;fontSource=https%3A%2F%2Ffonts.googleapis.com%2Fcss%3Ffamily%3DArchitects%2BDaughter;" edge="1" parent="1">
          <mxGeometry width="100" relative="1" as="geometry">
            <mxPoint x="240" y="480" as="sourcePoint" />
            <mxPoint x="340" y="480" as="targetPoint" />
          </mxGeometry>
        </mxCell>
        <mxCell id="IqZ9WiE2xhwn1gOewDwU-104" value="" style="shape=link;html=1;rounded=0;sketch=1;hachureGap=4;jiggle=2;curveFitting=1;fontFamily=Architects Daughter;fontSource=https%3A%2F%2Ffonts.googleapis.com%2Fcss%3Ffamily%3DArchitects%2BDaughter;" edge="1" parent="1">
          <mxGeometry width="100" relative="1" as="geometry">
            <mxPoint x="450" y="480" as="sourcePoint" />
            <mxPoint x="550" y="480" as="targetPoint" />
          </mxGeometry>
        </mxCell>
        <mxCell id="IqZ9WiE2xhwn1gOewDwU-106" value="" style="edgeStyle=orthogonalEdgeStyle;rounded=0;sketch=1;hachureGap=4;jiggle=2;curveFitting=1;orthogonalLoop=1;jettySize=auto;html=1;fontFamily=Architects Daughter;fontSource=https%3A%2F%2Ffonts.googleapis.com%2Fcss%3Ffamily%3DArchitects%2BDaughter;" edge="1" parent="1" source="IqZ9WiE2xhwn1gOewDwU-105" target="IqZ9WiE2xhwn1gOewDwU-6">
          <mxGeometry relative="1" as="geometry" />
        </mxCell>
        <mxCell id="IqZ9WiE2xhwn1gOewDwU-105" value="&lt;font size=&quot;1&quot; color=&quot;#ff66ff&quot;&gt;&lt;b style=&quot;font-size: 14px;&quot;&gt;2.Receive Events&lt;/b&gt;&lt;/font&gt;" style="text;html=1;align=center;verticalAlign=middle;resizable=0;points=[];autosize=1;strokeColor=none;fillColor=none;fontFamily=Architects Daughter;fontSource=https%3A%2F%2Ffonts.googleapis.com%2Fcss%3Ffamily%3DArchitects%2BDaughter;" vertex="1" parent="1">
          <mxGeometry x="335" y="459.1" width="130" height="30" as="geometry" />
        </mxCell>
        <mxCell id="IqZ9WiE2xhwn1gOewDwU-107" value="" style="shape=link;html=1;rounded=0;sketch=1;hachureGap=4;jiggle=2;curveFitting=1;fontFamily=Architects Daughter;fontSource=https%3A%2F%2Ffonts.googleapis.com%2Fcss%3Ffamily%3DArchitects%2BDaughter;" edge="1" parent="1">
          <mxGeometry width="100" relative="1" as="geometry">
            <mxPoint x="580" y="235.25" as="sourcePoint" />
            <mxPoint x="810" y="350" as="targetPoint" />
          </mxGeometry>
        </mxCell>
        <mxCell id="IqZ9WiE2xhwn1gOewDwU-108" value="&lt;b&gt;&lt;font color=&quot;#007fff&quot;&gt;5.SEND ALERST&lt;/font&gt;&lt;/b&gt;" style="text;html=1;align=center;verticalAlign=middle;resizable=0;points=[];autosize=1;strokeColor=none;fillColor=none;fontFamily=Architects Daughter;fontSource=https%3A%2F%2Ffonts.googleapis.com%2Fcss%3Ffamily%3DArchitects%2BDaughter;" vertex="1" parent="1">
          <mxGeometry x="770" y="350" width="120" height="30" as="geometry" />
        </mxCell>
        <mxCell id="IqZ9WiE2xhwn1gOewDwU-111" value="" style="shape=link;html=1;rounded=0;sketch=1;hachureGap=4;jiggle=2;curveFitting=1;fontFamily=Architects Daughter;fontSource=https%3A%2F%2Ffonts.googleapis.com%2Fcss%3Ffamily%3DArchitects%2BDaughter;entryX=0;entryY=0.5;entryDx=0;entryDy=0;" edge="1" parent="1" source="IqZ9WiE2xhwn1gOewDwU-108" target="IqZ9WiE2xhwn1gOewDwU-8">
          <mxGeometry width="100" relative="1" as="geometry">
            <mxPoint x="870" y="380" as="sourcePoint" />
            <mxPoint x="970" y="380" as="targetPoint" />
            <Array as="points">
              <mxPoint x="860" y="380" />
            </Array>
          </mxGeometry>
        </mxCell>
        <mxCell id="IqZ9WiE2xhwn1gOewDwU-112" value="" style="shape=link;html=1;rounded=0;sketch=1;hachureGap=4;jiggle=2;curveFitting=1;fontFamily=Architects Daughter;fontSource=https%3A%2F%2Ffonts.googleapis.com%2Fcss%3Ffamily%3DArchitects%2BDaughter;" edge="1" parent="1">
          <mxGeometry width="100" relative="1" as="geometry">
            <mxPoint x="570" y="235.25" as="sourcePoint" />
            <mxPoint x="710" y="420" as="targetPoint" />
          </mxGeometry>
        </mxCell>
        <mxCell id="IqZ9WiE2xhwn1gOewDwU-114" value="&lt;b&gt;&lt;font color=&quot;#00cccc&quot; style=&quot;font-size: 12px;&quot;&gt;6.SENDS EMAIL&lt;/font&gt;&lt;/b&gt;" style="edgeLabel;html=1;align=center;verticalAlign=middle;resizable=0;points=[];sketch=1;hachureGap=4;jiggle=2;curveFitting=1;fontFamily=Architects Daughter;fontSource=https%3A%2F%2Ffonts.googleapis.com%2Fcss%3Ffamily%3DArchitects%2BDaughter;" vertex="1" connectable="0" parent="IqZ9WiE2xhwn1gOewDwU-112">
          <mxGeometry x="0.5376" relative="1" as="geometry">
            <mxPoint as="offset" />
          </mxGeometry>
        </mxCell>
        <mxCell id="IqZ9WiE2xhwn1gOewDwU-113" value="" style="shape=link;html=1;rounded=0;sketch=1;hachureGap=4;jiggle=2;curveFitting=1;fontFamily=Architects Daughter;fontSource=https%3A%2F%2Ffonts.googleapis.com%2Fcss%3Ffamily%3DArchitects%2BDaughter;fontColor=#CC6600;" edge="1" parent="1">
          <mxGeometry width="100" relative="1" as="geometry">
            <mxPoint x="580" y="470" as="sourcePoint" />
            <mxPoint x="710" y="420" as="targetPoint" />
          </mxGeometry>
        </mxCell>
        <mxCell id="IqZ9WiE2xhwn1gOewDwU-117" value="&lt;b&gt;&lt;font color=&quot;#ff8000&quot; style=&quot;font-size: 14px;&quot;&gt;7. SENDS AND RECEIVES EMAIL&lt;/font&gt;&lt;/b&gt;" style="text;html=1;align=center;verticalAlign=middle;resizable=0;points=[];autosize=1;strokeColor=none;fillColor=none;fontFamily=Architects Daughter;fontSource=https%3A%2F%2Ffonts.googleapis.com%2Fcss%3Ffamily%3DArchitects%2BDaughter;" vertex="1" parent="1">
          <mxGeometry x="715" y="528" width="230" height="30" as="geometry" />
        </mxCell>
        <mxCell id="IqZ9WiE2xhwn1gOewDwU-119" value="" style="shape=link;html=1;rounded=0;sketch=1;hachureGap=4;jiggle=2;curveFitting=1;fontFamily=Architects Daughter;fontSource=https%3A%2F%2Ffonts.googleapis.com%2Fcss%3Ffamily%3DArchitects%2BDaughter;entryX=0.365;entryY=0.167;entryDx=0;entryDy=0;entryPerimeter=0;" edge="1" parent="1" target="IqZ9WiE2xhwn1gOewDwU-117">
          <mxGeometry width="100" relative="1" as="geometry">
            <mxPoint x="580" y="470" as="sourcePoint" />
            <mxPoint x="680" y="470" as="targetPoint" />
          </mxGeometry>
        </mxCell>
        <mxCell id="IqZ9WiE2xhwn1gOewDwU-120" value="" style="shape=link;html=1;rounded=0;sketch=1;hachureGap=4;jiggle=2;curveFitting=1;fontFamily=Architects Daughter;fontSource=https%3A%2F%2Ffonts.googleapis.com%2Fcss%3Ffamily%3DArchitects%2BDaughter;exitX=0.5;exitY=1;exitDx=0;exitDy=0;exitPerimeter=0;" edge="1" parent="1" source="IqZ9WiE2xhwn1gOewDwU-117">
          <mxGeometry width="100" relative="1" as="geometry">
            <mxPoint x="990" y="630" as="sourcePoint" />
            <mxPoint x="1090" y="630" as="targetPoint" />
          </mxGeometry>
        </mxCell>
        <mxCell id="IqZ9WiE2xhwn1gOewDwU-121" value="" style="shape=link;html=1;rounded=0;sketch=1;hachureGap=4;jiggle=2;curveFitting=1;fontFamily=Architects Daughter;fontSource=https%3A%2F%2Ffonts.googleapis.com%2Fcss%3Ffamily%3DArchitects%2BDaughter;" edge="1" parent="1">
          <mxGeometry width="100" relative="1" as="geometry">
            <mxPoint x="570" y="490" as="sourcePoint" />
            <mxPoint x="730" y="620" as="targetPoint" />
          </mxGeometry>
        </mxCell>
        <mxCell id="IqZ9WiE2xhwn1gOewDwU-122" value="&lt;b&gt;&lt;font color=&quot;#ff99cc&quot; style=&quot;font-size: 13px;&quot;&gt;8. SENDS RESPONSE ACTION&lt;/font&gt;&lt;/b&gt;" style="text;html=1;align=center;verticalAlign=middle;resizable=0;points=[];autosize=1;strokeColor=none;fillColor=none;fontFamily=Architects Daughter;fontSource=https%3A%2F%2Ffonts.googleapis.com%2Fcss%3Ffamily%3DArchitects%2BDaughter;" vertex="1" parent="1">
          <mxGeometry x="630" y="610" width="200" height="30" as="geometry" />
        </mxCell>
        <mxCell id="IqZ9WiE2xhwn1gOewDwU-123" value="" style="shape=link;html=1;rounded=0;sketch=1;hachureGap=4;jiggle=2;curveFitting=1;fontFamily=Architects Daughter;fontSource=https%3A%2F%2Ffonts.googleapis.com%2Fcss%3Ffamily%3DArchitects%2BDaughter;labelBorderColor=#084077;" edge="1" parent="1">
          <mxGeometry width="100" relative="1" as="geometry">
            <mxPoint x="770" y="630" as="sourcePoint" />
            <mxPoint x="1080" y="660" as="targetPoint" />
          </mxGeometry>
        </mxCell>
        <mxCell id="IqZ9WiE2xhwn1gOewDwU-125" value="" style="shape=link;html=1;rounded=0;sketch=1;hachureGap=4;jiggle=2;curveFitting=1;fontFamily=Architects Daughter;fontSource=https%3A%2F%2Ffonts.googleapis.com%2Fcss%3Ffamily%3DArchitects%2BDaughter;exitX=0.25;exitY=0;exitDx=0;exitDy=0;" edge="1" parent="1" source="IqZ9WiE2xhwn1gOewDwU-7">
          <mxGeometry width="100" relative="1" as="geometry">
            <mxPoint x="450" y="250" as="sourcePoint" />
            <mxPoint x="550" y="250" as="targetPoint" />
            <Array as="points">
              <mxPoint x="520" y="350" />
            </Array>
          </mxGeometry>
        </mxCell>
        <mxCell id="IqZ9WiE2xhwn1gOewDwU-127" value="" style="shape=link;html=1;rounded=0;sketch=1;hachureGap=4;jiggle=2;curveFitting=1;fontFamily=Architects Daughter;fontSource=https%3A%2F%2Ffonts.googleapis.com%2Fcss%3Ffamily%3DArchitects%2BDaughter;exitX=0.605;exitY=-0.267;exitDx=0;exitDy=0;exitPerimeter=0;" edge="1" parent="1" source="IqZ9WiE2xhwn1gOewDwU-128">
          <mxGeometry width="100" relative="1" as="geometry">
            <mxPoint x="190" y="230" as="sourcePoint" />
            <mxPoint x="540" y="230" as="targetPoint" />
          </mxGeometry>
        </mxCell>
        <mxCell id="IqZ9WiE2xhwn1gOewDwU-128" value="&lt;i&gt;&lt;font color=&quot;#fb80ff&quot;&gt;8.. SENDS RESPONSE ACTION&lt;/font&gt;&lt;/i&gt;" style="text;html=1;align=center;verticalAlign=middle;resizable=0;points=[];autosize=1;strokeColor=none;fillColor=none;fontFamily=Architects Daughter;fontSource=https%3A%2F%2Ffonts.googleapis.com%2Fcss%3Ffamily%3DArchitects%2BDaughter;" vertex="1" parent="1">
          <mxGeometry x="55" y="258" width="190" height="30" as="geometry" />
        </mxCell>
        <mxCell id="IqZ9WiE2xhwn1gOewDwU-129" value="" style="shape=link;html=1;rounded=0;sketch=1;hachureGap=4;jiggle=2;curveFitting=1;fontFamily=Architects Daughter;fontSource=https%3A%2F%2Ffonts.googleapis.com%2Fcss%3Ffamily%3DArchitects%2BDaughter;" edge="1" parent="1">
          <mxGeometry width="100" relative="1" as="geometry">
            <mxPoint x="180" y="430" as="sourcePoint" />
            <mxPoint x="180" y="280" as="targetPoint" />
          </mxGeometry>
        </mxCell>
        <mxCell id="IqZ9WiE2xhwn1gOewDwU-131" value="" style="shape=link;html=1;rounded=0;sketch=1;hachureGap=4;jiggle=2;curveFitting=1;fontFamily=Architects Daughter;fontSource=https%3A%2F%2Ffonts.googleapis.com%2Fcss%3Ffamily%3DArchitects%2BDaughter;" edge="1" parent="1">
          <mxGeometry width="100" relative="1" as="geometry">
            <mxPoint x="280" y="820" as="sourcePoint" />
            <mxPoint x="540" y="820" as="targetPoint" />
          </mxGeometry>
        </mxCell>
        <mxCell id="IqZ9WiE2xhwn1gOewDwU-132" value="" style="shape=link;html=1;rounded=0;sketch=1;hachureGap=4;jiggle=2;curveFitting=1;fontFamily=Architects Daughter;fontSource=https%3A%2F%2Ffonts.googleapis.com%2Fcss%3Ffamily%3DArchitects%2BDaughter;" edge="1" parent="1">
          <mxGeometry width="100" relative="1" as="geometry">
            <mxPoint x="280" y="560" as="sourcePoint" />
            <mxPoint x="290" y="810" as="targetPoint" />
          </mxGeometry>
        </mxCell>
        <mxCell id="IqZ9WiE2xhwn1gOewDwU-137" value="&lt;b&gt;&lt;font color=&quot;#007fff&quot;&gt;8. PERMORM RESPONSIVE ACTION&lt;/font&gt;&lt;/b&gt;" style="edgeLabel;html=1;align=center;verticalAlign=middle;resizable=0;points=[];sketch=1;hachureGap=4;jiggle=2;curveFitting=1;fontFamily=Architects Daughter;fontSource=https%3A%2F%2Ffonts.googleapis.com%2Fcss%3Ffamily%3DArchitects%2BDaughter;" vertex="1" connectable="0" parent="IqZ9WiE2xhwn1gOewDwU-132">
          <mxGeometry x="0.0792" y="-2" relative="1" as="geometry">
            <mxPoint as="offset" />
          </mxGeometry>
        </mxCell>
        <mxCell id="IqZ9WiE2xhwn1gOewDwU-134" value="" style="shape=link;html=1;rounded=0;sketch=1;hachureGap=4;jiggle=2;curveFitting=1;fontFamily=Architects Daughter;fontSource=https%3A%2F%2Ffonts.googleapis.com%2Fcss%3Ffamily%3DArchitects%2BDaughter;" edge="1" parent="1">
          <mxGeometry width="100" relative="1" as="geometry">
            <mxPoint x="210" y="560" as="sourcePoint" />
            <mxPoint x="280" y="560" as="targetPoint" />
          </mxGeometry>
        </mxCell>
        <mxCell id="IqZ9WiE2xhwn1gOewDwU-136" value="" style="shape=link;html=1;rounded=0;sketch=1;hachureGap=4;jiggle=2;curveFitting=1;fontFamily=Architects Daughter;fontSource=https%3A%2F%2Ffonts.googleapis.com%2Fcss%3Ffamily%3DArchitects%2BDaughter;" edge="1" parent="1">
          <mxGeometry width="100" relative="1" as="geometry">
            <mxPoint x="210" y="500" as="sourcePoint" />
            <mxPoint x="210" y="560" as="targetPoint" />
          </mxGeometry>
        </mxCell>
      </root>
    </mxGraphModel>
  </diagram>
</mxfile>
